HIERARCHY
ROOT pelvis
{
  OFFSET 0 100 0
  CHANNELS 6 Xposition Yposition Zposition Zrotation Xrotation Yrotation
  JOINT pelvis_right_femur
  {
    OFFSET -10.78128 -3.44521 -0.5502486
    CHANNELS 3 Zrotation Xrotation Yrotation
    JOINT right_femur_tibia
    {
      OFFSET -0.8047443 -44.0398 -0.1307829
      CHANNELS 3 Zrotation Xrotation Yrotation
      JOINT right_tibia_foot
      {
        OFFSET 3.006224 -47.83518 -5
        CHANNELS 3 Zrotation Xrotation Yrotation
        End Site
        {
          OFFSET 0 -5 15
        }
      }
    }
  }
  JOINT pelvis_left_femur
  {
    OFFSET 10.78128 -3.44521 -0.5502486
    CHANNELS 3 Zrotation Xrotation Yrotation
    JOINT left_femur_tibia
    {
      OFFSET 0.8047443 -44.0398 -0.1307829
      CHANNELS 3 Zrotation Xrotation Yrotation
      JOINT left_tibia_foot
      {
        OFFSET -4.370144 -48.10324 -4.275266
        CHANNELS 3 Zrotation Xrotation Yrotation
        End Site
        {
          OFFSET 0 -5 15
        }
      }
    }
  }
  JOINT pelvis_spine1
  {
    OFFSET 0 6.468898 -3.129235
    CHANNELS 3 Zrotation Xrotation Yrotation
    JOINT spine1
    {
      OFFSET 0 23.15396 4.99043
      CHANNELS 3 Zrotation Xrotation Yrotation
      JOINT spine2
      {
        OFFSET 0 20.79997 -5.064912
        CHANNELS 3 Zrotation Xrotation Yrotation
        JOINT neck
        {
          OFFSET 0 14.38658 9.616178
          CHANNELS 3 Zrotation Xrotation Yrotation
          End Site
          {
            OFFSET 0 20 0
          }
        }
      }
      JOINT right_manubrium
      {
        OFFSET -5.722621 16.35077 3.967754
        CHANNELS 3 Zrotation Xrotation Yrotation
        JOINT right_clavicle
        {
          OFFSET -13.16364 1.694482 -4.693211
          CHANNELS 3 Zrotation Xrotation Yrotation
          JOINT right_humerus
          {
            OFFSET -28.5034 -0.3100689 -2.792744
            CHANNELS 3 Zrotation Xrotation Yrotation
            JOINT right_radius
            {
              OFFSET -25.15693 0.02248979 -1.271978
              CHANNELS 3 Zrotation Xrotation Yrotation
              End Site
              {
                OFFSET -15 0 0
              }
            }
          }
        }
      }
      JOINT left_manubrium
      {
        OFFSET 5.722621 16.35077 3.967754
        CHANNELS 3 Zrotation Xrotation Yrotation
        JOINT left_clavicle
        {
          OFFSET 13.16364 1.694482 -4.693211
          CHANNELS 3 Zrotation Xrotation Yrotation
          JOINT left_humerus
          {
            OFFSET 29.39168 -1.063119 -2.237045
            CHANNELS 3 Zrotation Xrotation Yrotation
            JOINT left_radius
            {
              OFFSET 24.59957 -0.9528479 0.9047498
              CHANNELS 3 Zrotation Xrotation Yrotation
              End Site
              {
                OFFSET 15 -0 -0
              }
            }
          }
        }
      }
    }
  }
}
MOTION
Frames: 15
Frame Time: 0.0416666666667
0 103.5113 0 2.759945 -3.073224 0.3012838 0.7279509 -10.22971 7.798917 -0 37.11216 -0 -5.089306 -18.12348 -3.888722 -7.987426 11.93958 -23.95731 -0 4.644137 -0 8.625095 -15.15424 26.22364 -2.739907 -4.086404 4.964174 3.160402 9.635812 -8.33191 1.520011 21.39363 6.417182 2.571534 -26.51077 10.01339 5.976953 -19.80695 11.42488 86.41686 33.47741 -21.25325 -0 0 16.62927 -5.270787 7.129156 2.547851 6.742208 -20.83901 -0.6107604 -95.5353 26.26176 23.6093 0 0 -14.89889 9.932296 17.74142 2.487245
0.2734051 103.3044 1.381209 2.16054 -1.644007 0.3806428 1.608697 -13.0413 8.092755 -0 37.22468 -0 -4.905967 -17.92015 -3.402201 -7.784327 11.61114 -23.9394 -0 4.14006 -0 7.950913 -16.21283 26.1321 -2.706445 -4.031606 4.95585 3.148349 9.619629 -8.315764 1.480016 21.41488 6.406034 2.572918 -26.42596 9.924616 5.974189 -19.71974 11.42165 86.35469 33.49265 -21.14892 -0 0 16.53261 -5.423659 7.212899 2.670376 6.710214 -20.84604 -0.5805715 -95.48385 26.22648 23.55795 0 0 -14.7911 9.810191 17.71996 2.55523
0.5045197 103.0149 3.078254 1.216548 -0.772218 0.4725847 2.83607 -17.30933 6.924009 -0 35.17878 -0 -5.925113 -15.47611 -2.629467 -7.186337 11.72864 -22.86566 -0 4.446115 -0 6.547156 -18.10701 25.23428 -2.322898 -3.392461 4.903096 3.138073 9.71152 -8.34894 1.34807 21.06375 6.706749 2.927473 -26.62648 9.781584 5.886274 -19.39787 11.50965 86.96814 34.02827 -21.72066 -0 0 15.56918 -5.354904 7.247986 2.952903 6.620681 -21.11811 -1.013806 -94.77724 26.40153 23.05215 0 0 -17.06314 9.450672 16.41406 3.394192
0.729516 102.6783 5.001486 0.4206331 0.2887253 0.5495258 4.087978 -21.27006 6.936139 -0 33.40635 -0 -6.15457 -13.76882 -2.368474 -6.720102 11.69153 -22.06683 -0 4.767281 -0 5.775376 -19.5377 24.638 -2.145593 -3.121535 4.871415 3.134072 9.748708 -8.384873 1.282783 20.89086 6.851139 3.096819 -26.70901 9.708323 5.837692 -19.25417 11.54726 87.28716 34.24613 -22.05659 -0 0 15.13037 -5.340678 7.269058 3.075091 6.602095 -21.27471 -1.223432 -94.43623 26.52594 22.79891 0 0 -18.19893 9.23459 15.81022 3.852476
0.9646119 102.22 7.239153 -0.1970091 1.198555 0.6217534 5.237503 -25.22033 6.89335 -0 30.41182 -0 -6.290093 -11.75031 -2.219084 -6.384031 11.87732 -21.04784 -0 5.37677 -0 5.667907 -20.77943 24.08652 -1.970339 -2.892184 4.839554 3.135734 9.775965 -8.451725 1.23216 20.6836 7.022724 3.289004 -26.86097 9.683246 5.769917 -19.16607 11.57873 87.70841 34.43725 -22.56972 -0 0 14.74398 -5.184662 7.188729 3.094972 6.629299 -21.46915 -1.482165 -94.13345 26.8188 22.59526 0 0 -19.62067 8.977525 15.19654 4.448371
1.220444 101.6116 9.827604 -0.6490266 2.056964 0.7151502 6.204768 -28.86926 6.841454 -0 26.73951 -0 -6.320475 -9.717654 -2.114345 -6.181921 12.19937 -20.07517 -0 6.096246 -0 5.738691 -21.92428 23.49345 -1.823498 -2.701997 4.802937 3.137792 9.805511 -8.505904 1.185026 20.49397 7.179576 3.457155 -26.96894 9.6602 5.716975 -19.07701 11.60999 88.04855 34.62581 -22.96832 -0 0 14.38295 -5.146938 7.200601 3.172351 6.666983 -21.64487 -1.684463 -93.79562 26.92072 22.33064 0 0 -20.80276 8.85624 14.64004 4.824522
1.499098 100.8382 12.8209 -0.9399355 2.845715 0.8821777 6.894402 -32.03778 6.548334 -0 22.53686 -0 -6.401262 -7.610818 -1.912783 -6.109793 12.68102 -19.14766 -0 6.963556 -0 5.81248 -22.91441 22.72969 -1.6867 -2.535211 4.762251 3.142001 9.83121 -8.563277 1.13931 20.30288 7.337145 3.621232 -27.07024 9.6432 5.662751 -18.9939 11.63913 88.37887 34.80783 -23.35946 -0 0 14.03377 -5.136989 7.233878 3.259266 6.719957 -21.82595 -1.873357 -93.44023 26.97846 22.03943 0 0 -21.96135 8.776499 14.09835 5.143232
1.797149 99.9321 16.266 -1.151495 3.572788 1.186903 7.343702 -34.4902 6.040049 -0 18.41613 -0 -6.636524 -5.541427 -1.566254 -6.085893 13.25711 -18.31673 -0 8.085867 -0 5.538598 -23.61079 21.63465 -1.556438 -2.360477 4.709526 3.151724 9.866701 -8.615894 1.084719 20.11759 7.485036 3.770599 -27.12289 9.602703 5.617222 -18.87513 11.6745 88.6617 35.00586 -23.66389 -0 0 13.63159 -5.262233 7.377799 3.427926 6.764325 -22.00342 -2.026339 -92.99086 26.84354 21.63152 0 0 -22.98118 8.796706 13.53581 5.284479
2.105806 98.98243 20.20833 -1.407541 4.203015 1.680736 7.699855 -35.95029 5.452332 -0 15.15604 -0 -7.111892 -3.682113 -1.082388 -5.974353 13.83444 -17.55657 -0 9.744413 -0 4.58949 -23.71029 20.03001 -1.430777 -2.179056 4.64732 3.162158 9.907054 -8.667614 1.019929 19.95252 7.612276 3.900313 -27.11435 9.525372 5.579125 -18.71968 11.71151 88.90556 35.18855 -23.90554 -0 0 13.19479 -5.503821 7.604574 3.654557 6.792898 -22.17668 -2.150474 -92.49654 26.61061 21.15443 0 0 -23.85146 8.818892 12.98728 5.361353
2.415416 98.13639 24.69338 -1.842286 4.665297 2.361107 8.190207 -36.19419 5.023243 -0 13.50199 -0 -7.812656 -2.276696 -0.5580609 -5.622246 14.27366 -16.74223 -0 12.43493 -0 2.791838 -22.78017 17.80992 -1.3094 -1.983786 4.579276 3.164904 9.956841 -8.713124 0.9418071 19.82945 7.701437 4.000006 -27.00845 9.386976 5.555844 -18.51494 11.74972 89.09168 35.33071 -24.05893 -0 0 12.73192 -5.899908 7.926617 3.948998 6.788163 -22.33522 -2.240537 -91.99053 26.30582 20.63578 0 0 -24.47164 8.769687 12.48609 5.435855
2.726446 97.5675 29.76901 -2.488274 4.851828 3.125688 8.91327 -35.17629 4.875244 -0 13.61406 -0 -8.574316 -1.484663 -0.1543095 -4.978561 14.40569 -15.63317 -0 16.84766 -0 0.3853429 -20.44717 15.0924 -1.197541 -1.789264 4.522424 3.142512 10.01595 -8.742442 0.8535662 19.77534 7.735208 4.06236 -26.78454 9.176297 5.554171 -18.2805 11.78468 89.2007 35.39539 -24.11332 -0 0 12.31485 -6.442545 8.305122 4.287209 6.739479 -22.4639 -2.29914 -91.57801 26.04957 20.19379 0 0 -24.74598 8.524665 12.1089 5.656301
3.057349 97.42028 35.46138 -3.165304 4.632042 3.769887 9.638801 -32.99889 4.850496 -0 14.74674 -0 -9.143498 -1.231592 -0.02729246 -4.19855 14.02778 -14.04071 -0 23.61845 -0 -2.006196 -16.77953 12.30203 -1.107722 -1.609137 4.496731 3.08105 10.08599 -8.738035 0.7612173 19.80872 7.701907 4.081128 -26.43603 8.895223 5.578096 -18.0471 11.81497 89.19345 35.38135 -24.01785 -0 0 12.01364 -7.136879 8.715268 4.667204 6.635643 -22.53896 -2.322423 -91.32866 25.89429 19.92273 0 0 -24.58586 8.041707 11.90211 6.07747
3.427389 97.77729 41.70636 -3.547952 3.89114 4.0734 9.952238 -29.67452 4.694471 -0 15.81911 -0 -9.377291 -1.320357 -0.2479365 -3.555229 12.83025 -12.11261 -0 32.8332 -0 -3.859535 -12.47646 10.0476 -1.057065 -1.454615 4.518289 2.975984 10.16103 -8.682268 0.6719114 19.93269 7.600548 4.053864 -25.97901 8.560886 5.619244 -17.85119 11.83897 89.02669 35.32166 -23.70531 -0 0 11.87768 -7.982969 9.136864 5.102599 6.471792 -22.53641 -2.3036 -91.25609 25.8349 19.86576 0 0 -23.97681 7.363878 11.86388 6.660348
3.824033 98.65769 48.28795 -3.403138 2.620451 3.93354 9.617036 -25.0837 4.363949 -0 16.2477 -0 -9.3538 -1.717227 -0.7403232 -3.209591 10.36224 -10.32548 -0 43.57598 -0 -5.103875 -8.531062 8.852194 -1.058803 -1.325399 4.595379 2.830921 10.23168 -8.562268 0.5886471 20.13386 7.439887 3.98357 -25.43507 8.190153 5.655956 -17.71699 11.85626 88.66629 35.26255 -23.1089 -0 0 11.91252 -9.001909 9.56721 5.633179 6.249405 -22.44251 -2.236999 -91.30526 25.80311 19.99185 0 0 -22.98296 6.589583 11.93112 7.298421
4.198918 99.98474 54.86802 -2.720068 0.9733045 3.427118 8.687955 -19.2957 3.983447 -0 15.90651 -0 -9.242399 -2.565235 -1.26082 -3.119338 6.238914 -9.065458 -0 53.88328 -0 -5.871814 -5.723226 8.897361 -1.119972 -1.220123 4.737025 2.646568 10.28804 -8.368404 0.5112483 20.39117 7.234847 3.880172 -24.82304 7.794848 5.660557 -17.66737 11.86663 88.09228 35.23939 -22.1826 -0 0 12.11953 -10.22701 10.0011 6.304416 5.976729 -22.25531 -2.125779 -91.41439 25.74659 20.26643 0 0 -21.71915 5.790827 12.0228 7.925404
